<svg width="603" height="381" viewBox="0 0 603 381" fill="none" xmlns="http://www.w3.org/2000/svg">
<g clip-path="url(#clip0_9_48)">
<path d="M154.921 109.396C185.123 109.396 209.607 84.9068 209.607 54.6979C209.607 24.4891 185.123 0 154.921 0C124.719 0 100.235 24.4891 100.235 54.6979C100.235 84.9068 124.719 109.396 154.921 109.396Z" fill="#FF6584"/>
<path d="M603 24.0458V167.911C603 285.186 507.951 380.251 390.707 380.244H0V236.379C0 159.503 40.849 92.1617 102.028 54.8992C112.571 48.4721 123.657 42.9841 135.161 38.4988C141.93 35.8535 148.834 33.5642 155.842 31.6403C155.979 31.5947 156.122 31.5556 156.259 31.523C158.33 30.9586 160.414 30.4245 162.51 29.9208C162.628 29.8882 162.738 29.8622 162.856 29.8361C175.779 26.7563 188.962 24.8962 202.233 24.2803C203.802 24.2086 205.372 24.15 206.954 24.1174C207.521 24.0979 208.094 24.0849 208.673 24.0849C209.871 24.0588 211.076 24.0458 212.287 24.0458H603Z" fill="#090814"/>
<path opacity="0.199" d="M603 24.0458V167.911C603 285.186 507.951 380.251 390.707 380.244H0V236.379C0 159.503 40.849 92.1617 102.028 54.8992C112.571 48.4721 123.657 42.9841 135.161 38.4988C141.93 35.8535 148.834 33.5642 155.842 31.6403C155.979 31.5947 156.122 31.5556 156.259 31.523C158.33 30.9586 160.414 30.4245 162.51 29.9208C162.628 29.8882 162.738 29.8622 162.856 29.8361C175.779 26.7563 188.962 24.8962 202.233 24.2803C203.802 24.2086 205.372 24.15 206.954 24.1174C207.521 24.0979 208.094 24.0849 208.673 24.0849C209.871 24.0588 211.076 24.0458 212.287 24.0458H603Z" fill="#6C63FF"/>
<path d="M274.808 303.347C123.355 303.347 0.52162 338.089 0.00653076 381H549.609C549.094 338.089 426.261 303.347 274.808 303.347Z" fill="#D6D6E3"/>
<g opacity="0.1">
<path d="M229.218 369.674C257.989 369.674 281.313 363.194 281.313 355.2C281.313 347.207 257.989 340.726 229.218 340.726C200.447 340.726 177.123 347.207 177.123 355.2C177.123 363.194 200.447 369.674 229.218 369.674Z" fill="black"/>
</g>
<g opacity="0.1">
<path d="M341.874 343.621C370.645 343.621 393.969 337.141 393.969 329.147C393.969 321.153 370.645 314.673 341.874 314.673C313.102 314.673 289.779 321.153 289.779 329.147C289.779 337.141 313.102 343.621 341.874 343.621Z" fill="black"/>
</g>
<g opacity="0.1">
<path d="M229.218 368.227C255.112 368.227 276.104 362.395 276.104 355.2C276.104 348.006 255.112 342.174 229.218 342.174C203.324 342.174 182.333 348.006 182.333 355.2C182.333 362.395 203.324 368.227 229.218 368.227Z" fill="black"/>
</g>
<g opacity="0.1">
<path d="M341.874 342.174C367.768 342.174 388.759 336.341 388.759 329.147C388.759 321.953 367.768 316.12 341.874 316.12C315.98 316.12 294.988 321.953 294.988 329.147C294.988 336.341 315.98 342.174 341.874 342.174Z" fill="black"/>
</g>
<path d="M89.8639 86.5994C92.3814 86.5994 94.4222 84.5581 94.4222 82.0401C94.4222 79.522 92.3814 77.4808 89.8639 77.4808C87.3464 77.4808 85.3056 79.522 85.3056 82.0401C85.3056 84.5581 87.3464 86.5994 89.8639 86.5994Z" fill="#F2F2F2"/>
<path d="M481.879 265.063C484.397 265.063 486.437 263.022 486.437 260.504C486.437 257.986 484.397 255.945 481.879 255.945C479.362 255.945 477.321 257.986 477.321 260.504C477.321 263.022 479.362 265.063 481.879 265.063Z" fill="#F2F2F2"/>
<path d="M266.987 118.514C269.505 118.514 271.545 116.473 271.545 113.955C271.545 111.437 269.505 109.396 266.987 109.396C264.47 109.396 262.429 111.437 262.429 113.955C262.429 116.473 264.47 118.514 266.987 118.514Z" fill="#F2F2F2"/>
<path d="M492.949 89.2047C494.388 89.2047 495.554 88.0383 495.554 86.5994C495.554 85.1605 494.388 83.9941 492.949 83.9941C491.511 83.9941 490.344 85.1605 490.344 86.5994C490.344 88.0383 491.511 89.2047 492.949 89.2047Z" fill="#6C63FF"/>
<path d="M100.283 219.47C101.721 219.47 102.888 218.304 102.888 216.865C102.888 215.426 101.721 214.26 100.283 214.26C98.8443 214.26 97.6782 215.426 97.6782 216.865C97.6782 218.304 98.8443 219.47 100.283 219.47Z" fill="#6C63FF"/>
<path d="M61.2117 271.786H60.0252V270.6H59.7934V271.786H58.6069V272.018H59.7934V273.205H60.0252V272.018H61.2117V271.786Z" fill="#F2F2F2"/>
<path d="M442.157 175.39H440.97V174.203H440.738V175.39H439.552V175.622H440.738V176.808H440.97V175.622H442.157V175.39Z" fill="#F2F2F2"/>
<path d="M540.486 155.85H539.299V154.663H539.068V155.85H537.881V156.082H539.068V157.269H539.299V156.082H540.486V155.85Z" fill="#F2F2F2"/>
<path d="M328.85 207.956H327.663V206.77H327.432V207.956H326.245V208.188H327.432V209.375H327.663V208.188H328.85V207.956Z" fill="#F2F2F2"/>
<path d="M511.834 214.47H510.647V213.283H510.415V214.47H509.229V214.701H510.415V215.888H510.647V214.701H511.834V214.47Z" fill="#F2F2F2"/>
<path d="M291.081 242.477H289.894V241.29H289.663V242.477H288.476V242.709H289.663V243.895H289.894V242.709H291.081V242.477Z" fill="#F2F2F2"/>
<path d="M374.433 243.779H373.247V242.593H373.015V243.779H371.828V244.011H373.015V245.198H373.247V244.011H374.433V243.779Z" fill="#F2F2F2"/>
<path d="M62.5141 133.053H61.3276V131.867H61.0958V133.053H59.9093V133.285H61.0958V134.472H61.3276V133.285H62.5141V133.053Z" fill="#F2F2F2"/>
<path d="M398.363 143.946L381.14 183.637L384.51 189.253L383.386 191.125L391.248 195.244V192.998L394.244 192.249L406.972 169.034L398.363 143.946Z" fill="#D6D6E3"/>
<path d="M384.886 190.751C384.886 190.751 372.158 210.597 386.384 213.592C400.61 216.588 389.004 192.623 389.004 192.623L384.886 190.751Z" fill="#D6D6E3"/>
<path d="M403.229 181.764L398.736 196.368L396.864 215.09L393.495 221.83L397.239 252.159L403.23 258.152L405.85 288.107V301.589L412.963 313.946L403.802 326.945C403.37 327.556 403.111 328.273 403.053 329.019C402.996 329.765 403.141 330.513 403.475 331.183C403.808 331.853 404.316 332.42 404.946 332.824C405.576 333.228 406.303 333.454 407.051 333.478C409.073 333.532 411.74 332.957 415.207 331.166C426.064 325.55 425.691 320.307 425.691 320.307C425.691 320.307 432.43 320.307 432.804 315.065C433.179 309.823 428.686 272.379 428.686 272.379L424.568 256.278V212.469H426.066L426.815 249.913L430.184 263.767L430.558 269.76L435.425 329.67C435.425 329.67 457.138 335.662 458.261 330.794C459.384 325.925 450.026 322.93 450.026 322.93L455.641 312.071V291.101L453.769 286.607L456.015 261.843V250.287L459.011 246.542V216.588L455.267 204.98L454.144 195.245L448.153 180.264C448.153 180.264 420.824 171.281 403.229 181.764Z" fill="#F2F2F2"/>
<path d="M451.896 97.1411C451.896 101.645 450.827 106.084 448.777 110.095C446.728 114.105 443.756 117.571 440.106 120.209C436.456 122.846 432.232 124.579 427.782 125.266C423.332 125.953 418.782 125.573 414.507 124.158C410.232 122.743 406.354 120.334 403.192 117.128C400.029 113.922 397.673 110.011 396.316 105.716C394.959 101.422 394.641 96.8664 395.387 92.4249C396.133 87.9833 397.923 83.7824 400.609 80.1675L400.617 80.1597C404.185 75.3581 409.176 71.8037 414.88 70.0018C420.584 68.1999 426.711 68.2422 432.389 70.1226C438.068 72.003 443.009 75.6258 446.511 80.4761C450.013 85.3265 451.897 91.1575 451.896 97.1405L451.896 97.1411Z" fill="#6C63FF"/>
<path d="M456.608 87.6174L446.281 97.1411C428.839 51.8562 401.095 79.6738 400.616 80.1604C403.483 76.3039 407.28 73.2365 411.652 71.2443C416.025 69.2521 420.831 68.3999 425.622 68.7673C435.36 69.515 452.041 78.9801 456.604 87.6174H456.608Z" fill="#F2F2F2"/>
<path d="M444.702 78.2318L448.601 91.7729C448.601 91.7729 440.505 116.043 402.962 116.889L401.732 120.356L397.613 121.48L395.742 129.343L400.983 179.144C400.983 179.144 398.737 184.012 402.48 183.638C402.48 183.638 427.188 175.401 448.527 182.889C448.527 182.889 453.02 184.761 451.896 180.643C451.896 180.643 466.873 171.282 465.747 161.546C464.621 151.811 466.871 106.504 466.871 106.504C466.871 106.504 469.116 93.3986 462.377 90.4031C462.378 90.4012 452.481 76.5461 444.702 78.2318Z" fill="#F2F2F2"/>
<path d="M436.491 172.847C436.491 172.847 413.037 175.203 419.529 188.213C426.022 201.222 437.583 177.237 437.583 177.237L436.491 172.847Z" fill="#D6D6E3"/>
<path d="M448.526 114.737C448.526 114.737 444.408 119.605 445.906 127.468C447.404 135.33 453.019 152.929 453.019 152.929L433.178 171.277L439.169 179.514L466.12 165.664L472.111 161.919C470.622 146.774 466.916 131.93 461.111 117.863L460.135 115.489C460.135 115.489 453.019 112.494 448.526 114.737Z" fill="#D6D6E3"/>
<path d="M313.221 122.632H312.035V121.445H311.803V122.632H310.617V122.864H311.803V124.051H312.035V122.864H313.221V122.632Z" fill="#F2F2F2"/>
<path d="M420.016 86.1578H418.83V84.9711H418.598V86.1578H417.411V86.3897H418.598V87.5764H418.83V86.3897H420.016V86.1578Z" fill="#F2F2F2"/>
<path d="M408.295 97.2304H407.108V96.0436H406.877V97.2304H405.69V97.4622H406.877V98.649H407.108V97.4622H408.295V97.2304Z" fill="#F2F2F2"/>
<path d="M362.06 69.6649C363.499 69.6649 364.665 68.4984 364.665 67.0595C364.665 65.6207 363.499 64.4542 362.06 64.4542C360.622 64.4542 359.456 65.6207 359.456 67.0595C359.456 68.4984 360.622 69.6649 362.06 69.6649Z" fill="#F2F2F2"/>
<path d="M550.912 24.0458H549.609C549.703 38.1531 555.367 51.6516 565.368 61.5997C575.369 71.5478 588.895 77.1391 603 77.1551V75.8525C589.241 75.8375 576.045 70.3838 566.288 60.6797C556.531 50.9757 551.004 37.8079 550.912 24.0458Z" fill="#6C63FF"/>
<path d="M526.818 24.0458H525.515C525.614 44.543 533.819 64.1682 548.337 78.6346C562.855 93.1011 582.507 101.233 603 101.254V99.9516C582.853 99.929 563.533 91.9338 549.259 77.712C534.986 63.4902 526.918 44.1971 526.818 24.0458Z" fill="#6C63FF"/>
<path d="M502.066 24.0458H500.763C500.926 80.2945 546.724 126.005 603 126.005V124.702C547.441 124.702 502.229 79.5781 502.066 24.0458Z" fill="#6C63FF"/>
<path d="M155.634 230.543C158.151 230.543 160.192 228.502 160.192 225.984C160.192 223.466 158.151 221.424 155.634 221.424C153.116 221.424 151.076 223.466 151.076 225.984C151.076 228.502 153.116 230.543 155.634 230.543Z" fill="#F2F2F2"/>
<path d="M217.497 131.983H216.31V133.169H216.078V131.983H214.892V131.751H216.078V130.564H216.31V131.751H217.497V131.983Z" fill="#F2F2F2"/>
<path d="M179.728 97.4622H178.541V98.649H178.31V97.4622H177.123V97.2304H178.31V96.0436H178.541V97.2304H179.728V97.4622Z" fill="#F2F2F2"/>
<path d="M201.868 217.307H200.682V218.493H200.45V217.307H199.263V217.075H200.45V215.888H200.682V217.075H201.868V217.307Z" fill="#F2F2F2"/>
<path d="M104.2 163.72C104.2 165.347 103.76 166.707 102.88 167.8C102.027 168.867 100.867 169.667 99.4 170.2C97.9333 170.733 96.32 171 94.56 171H80.72V142.6H96.52C97.8533 142.6 99 142.96 99.96 143.68C100.947 144.373 101.693 145.28 102.2 146.4C102.733 147.52 103 148.68 103 149.88C103 151.213 102.653 152.493 101.96 153.72C101.267 154.92 100.253 155.827 98.92 156.44C100.547 156.92 101.827 157.773 102.76 159C103.72 160.227 104.2 161.8 104.2 163.72ZM97.52 162.4C97.52 161.787 97.4 161.253 97.16 160.8C96.92 160.32 96.6 159.947 96.2 159.68C95.8267 159.387 95.3733 159.24 94.84 159.24H87.28V165.44H94.56C95.12 165.44 95.6133 165.307 96.04 165.04C96.4933 164.773 96.8533 164.413 97.12 163.96C97.3867 163.507 97.52 162.987 97.52 162.4ZM87.28 148.2V154.08H93.72C94.2 154.08 94.64 153.973 95.04 153.76C95.4667 153.547 95.8133 153.227 96.08 152.8C96.3467 152.347 96.48 151.787 96.48 151.12C96.48 150.48 96.36 149.947 96.12 149.52C95.9067 149.093 95.6133 148.773 95.24 148.56C94.8667 148.32 94.44 148.2 93.96 148.2H87.28ZM117.584 171.4C115.797 171.4 114.21 171.12 112.824 170.56C111.437 169.973 110.25 169.187 109.264 168.2C108.304 167.213 107.57 166.08 107.064 164.8C106.557 163.493 106.304 162.133 106.304 160.72C106.304 158.693 106.744 156.853 107.624 155.2C108.53 153.52 109.824 152.173 111.504 151.16C113.184 150.12 115.21 149.6 117.584 149.6C119.957 149.6 121.97 150.107 123.624 151.12C125.304 152.133 126.584 153.467 127.464 155.12C128.344 156.747 128.784 158.52 128.784 160.44C128.784 160.813 128.757 161.187 128.704 161.56C128.677 161.907 128.65 162.213 128.624 162.48H113.104C113.184 163.413 113.437 164.2 113.864 164.84C114.317 165.48 114.89 165.973 115.584 166.32C116.277 166.64 117.01 166.8 117.784 166.8C118.744 166.8 119.637 166.573 120.464 166.12C121.317 165.667 121.904 165.053 122.224 164.28L127.664 165.8C127.13 166.893 126.37 167.867 125.384 168.72C124.424 169.547 123.277 170.2 121.944 170.68C120.637 171.16 119.184 171.4 117.584 171.4ZM112.944 158.56H122.064C121.957 157.68 121.704 156.92 121.304 156.28C120.904 155.613 120.37 155.107 119.704 154.76C119.037 154.387 118.304 154.2 117.504 154.2C116.677 154.2 115.93 154.387 115.264 154.76C114.624 155.107 114.104 155.613 113.704 156.28C113.304 156.92 113.05 157.68 112.944 158.56ZM164.884 171H158.484V159.2C158.484 157.84 158.231 156.84 157.724 156.2C157.218 155.56 156.564 155.24 155.764 155.24C154.911 155.24 154.071 155.587 153.244 156.28C152.418 156.973 151.831 157.867 151.484 158.96V171H145.084V159.2C145.084 157.813 144.831 156.813 144.324 156.2C143.818 155.56 143.164 155.24 142.364 155.24C141.538 155.24 140.711 155.587 139.884 156.28C139.058 156.973 138.458 157.867 138.084 158.96V171H131.684V150H137.444V153.52C138.218 152.267 139.258 151.307 140.564 150.64C141.898 149.947 143.444 149.6 145.204 149.6C146.938 149.6 148.271 150.013 149.204 150.84C150.138 151.64 150.738 152.587 151.004 153.68C151.804 152.373 152.858 151.373 154.164 150.68C155.498 149.96 156.991 149.6 158.644 149.6C159.978 149.6 161.058 149.853 161.884 150.36C162.711 150.84 163.338 151.48 163.764 152.28C164.191 153.08 164.484 153.947 164.644 154.88C164.804 155.787 164.884 156.68 164.884 157.56V171ZM169.027 162.88V157.12H181.347V162.88H169.027ZM190.796 171L183.356 150H189.956L194.556 165.24L199.156 150H205.156L197.756 171H190.796ZM207.583 171V150H213.983V171H207.583ZM207.583 147.6V141.8H213.983V147.6H207.583ZM238.604 171H232.204V159.2C232.204 157.813 231.937 156.813 231.404 156.2C230.897 155.56 230.217 155.24 229.364 155.24C228.777 155.24 228.177 155.4 227.564 155.72C226.951 156.04 226.391 156.48 225.884 157.04C225.404 157.6 225.031 158.24 224.764 158.96V171H218.364V150H224.124V153.52C224.657 152.693 225.324 151.987 226.124 151.4C226.924 150.813 227.844 150.373 228.884 150.08C229.924 149.76 231.057 149.6 232.284 149.6C233.644 149.6 234.737 149.853 235.564 150.36C236.417 150.84 237.057 151.48 237.484 152.28C237.937 153.08 238.231 153.947 238.364 154.88C238.524 155.787 238.604 156.68 238.604 157.56V171ZM241.656 160.48C241.656 158.427 242.056 156.587 242.856 154.96C243.656 153.307 244.75 152 246.136 151.04C247.523 150.08 249.123 149.6 250.936 149.6C252.403 149.6 253.736 149.96 254.936 150.68C256.136 151.373 257.043 152.293 257.656 153.44V141.8H264.056V163.88C264.056 164.52 264.163 164.973 264.376 165.24C264.59 165.48 264.936 165.627 265.416 165.68V171C264.296 171.213 263.39 171.32 262.696 171.32C261.603 171.32 260.71 171.08 260.016 170.6C259.35 170.12 258.936 169.453 258.776 168.6L258.656 167.52C257.91 168.827 256.896 169.8 255.616 170.44C254.336 171.08 252.99 171.4 251.576 171.4C250.136 171.4 248.803 171.133 247.576 170.6C246.376 170.04 245.323 169.267 244.416 168.28C243.536 167.293 242.856 166.133 242.376 164.8C241.896 163.467 241.656 162.027 241.656 160.48ZM257.696 163.08V158.68C257.43 157.96 257.043 157.333 256.536 156.8C256.056 156.267 255.496 155.84 254.856 155.52C254.243 155.2 253.616 155.04 252.976 155.04C252.283 155.04 251.643 155.187 251.056 155.48C250.496 155.773 250.003 156.187 249.576 156.72C249.15 157.227 248.816 157.813 248.576 158.48C248.363 159.147 248.256 159.853 248.256 160.6C248.256 161.373 248.376 162.093 248.616 162.76C248.883 163.4 249.243 163.973 249.696 164.48C250.15 164.96 250.683 165.333 251.296 165.6C251.91 165.867 252.576 166 253.296 166C253.75 166 254.19 165.933 254.616 165.8C255.043 165.64 255.443 165.44 255.816 165.2C256.216 164.96 256.576 164.653 256.896 164.28C257.216 163.907 257.483 163.507 257.696 163.08ZM279.028 171.4C277.241 171.4 275.641 171.107 274.228 170.52C272.841 169.933 271.668 169.133 270.708 168.12C269.748 167.107 269.015 165.947 268.508 164.64C268.028 163.333 267.788 161.96 267.788 160.52C267.788 159.053 268.028 157.667 268.508 156.36C269.015 155.053 269.748 153.893 270.708 152.88C271.668 151.867 272.841 151.067 274.228 150.48C275.641 149.893 277.241 149.6 279.028 149.6C280.815 149.6 282.401 149.893 283.788 150.48C285.175 151.067 286.348 151.867 287.308 152.88C288.268 153.893 289.001 155.053 289.508 156.36C290.015 157.667 290.268 159.053 290.268 160.52C290.268 161.96 290.015 163.333 289.508 164.64C289.001 165.947 288.268 167.107 287.308 168.12C286.348 169.133 285.175 169.933 283.788 170.52C282.401 171.107 280.815 171.4 279.028 171.4ZM274.348 160.52C274.348 161.613 274.548 162.573 274.948 163.4C275.375 164.227 275.935 164.867 276.628 165.32C277.321 165.773 278.121 166 279.028 166C279.908 166 280.695 165.773 281.388 165.32C282.108 164.84 282.668 164.187 283.068 163.36C283.468 162.533 283.668 161.587 283.668 160.52C283.668 159.427 283.468 158.467 283.068 157.64C282.668 156.813 282.108 156.173 281.388 155.72C280.695 155.267 279.908 155.04 279.028 155.04C278.121 155.04 277.321 155.267 276.628 155.72C275.935 156.173 275.375 156.813 274.948 157.64C274.548 158.467 274.348 159.427 274.348 160.52ZM301.458 164.72C301.458 163.333 301.845 162.12 302.618 161.08C303.391 160.04 304.458 159.227 305.818 158.64C307.178 158.027 308.738 157.72 310.498 157.72C311.351 157.72 312.191 157.8 313.018 157.96C313.845 158.093 314.565 158.293 315.178 158.56V157.64C315.178 156.493 314.831 155.613 314.138 155C313.445 154.387 312.391 154.08 310.978 154.08C309.805 154.08 308.698 154.28 307.658 154.68C306.645 155.08 305.565 155.653 304.418 156.4L302.498 152.32C303.885 151.413 305.325 150.733 306.818 150.28C308.338 149.827 309.938 149.6 311.618 149.6C314.765 149.6 317.205 150.36 318.938 151.88C320.698 153.373 321.578 155.547 321.578 158.4V163.88C321.578 164.52 321.671 164.973 321.858 165.24C322.071 165.48 322.431 165.627 322.938 165.68V171C322.405 171.107 321.898 171.187 321.418 171.24C320.965 171.293 320.565 171.32 320.218 171.32C319.018 171.32 318.098 171.08 317.458 170.6C316.845 170.12 316.458 169.467 316.298 168.64L316.178 167.72C315.245 168.92 314.125 169.84 312.818 170.48C311.538 171.093 310.191 171.4 308.778 171.4C307.391 171.4 306.138 171.107 305.018 170.52C303.925 169.933 303.058 169.133 302.418 168.12C301.778 167.107 301.458 165.973 301.458 164.72ZM314.178 165.52C314.471 165.28 314.711 165.013 314.898 164.72C315.085 164.427 315.178 164.147 315.178 163.88V162C314.645 161.787 314.045 161.627 313.378 161.52C312.738 161.387 312.138 161.32 311.578 161.32C310.405 161.32 309.431 161.587 308.658 162.12C307.885 162.627 307.498 163.307 307.498 164.16C307.498 164.64 307.631 165.08 307.898 165.48C308.165 165.88 308.525 166.2 308.978 166.44C309.458 166.68 310.018 166.8 310.658 166.8C311.298 166.8 311.938 166.68 312.578 166.44C313.218 166.2 313.751 165.893 314.178 165.52ZM336.216 171.4C334.429 171.4 332.829 171.107 331.416 170.52C330.029 169.933 328.856 169.133 327.896 168.12C326.936 167.107 326.202 165.947 325.696 164.64C325.216 163.333 324.976 161.96 324.976 160.52C324.976 159.053 325.216 157.667 325.696 156.36C326.202 155.053 326.936 153.893 327.896 152.88C328.856 151.867 330.029 151.067 331.416 150.48C332.829 149.893 334.429 149.6 336.216 149.6C338.002 149.6 339.589 149.893 340.976 150.48C342.362 151.067 343.536 151.867 344.496 152.88C345.456 153.893 346.189 155.053 346.696 156.36C347.202 157.667 347.456 159.053 347.456 160.52C347.456 161.96 347.202 163.333 346.696 164.64C346.189 165.947 345.456 167.107 344.496 168.12C343.536 169.133 342.362 169.933 340.976 170.52C339.589 171.107 338.002 171.4 336.216 171.4ZM331.536 160.52C331.536 161.613 331.736 162.573 332.136 163.4C332.562 164.227 333.122 164.867 333.816 165.32C334.509 165.773 335.309 166 336.216 166C337.096 166 337.882 165.773 338.576 165.32C339.296 164.84 339.856 164.187 340.256 163.36C340.656 162.533 340.856 161.587 340.856 160.52C340.856 159.427 340.656 158.467 340.256 157.64C339.856 156.813 339.296 156.173 338.576 155.72C337.882 155.267 337.096 155.04 336.216 155.04C335.309 155.04 334.509 155.267 333.816 155.72C333.122 156.173 332.562 156.813 332.136 157.64C331.736 158.467 331.536 159.427 331.536 160.52ZM113.4 218H107V206.2C107 204.84 106.747 203.84 106.24 203.2C105.733 202.56 105.08 202.24 104.28 202.24C103.427 202.24 102.587 202.587 101.76 203.28C100.933 203.973 100.347 204.867 100 205.96V218H93.6V206.2C93.6 204.813 93.3467 203.813 92.84 203.2C92.3333 202.56 91.68 202.24 90.88 202.24C90.0533 202.24 89.2267 202.587 88.4 203.28C87.5733 203.973 86.9733 204.867 86.6 205.96V218H80.2V197H85.96V200.52C86.7333 199.267 87.7733 198.307 89.08 197.64C90.4133 196.947 91.96 196.6 93.72 196.6C95.4533 196.6 96.7867 197.013 97.72 197.84C98.6533 198.64 99.2533 199.587 99.52 200.68C100.32 199.373 101.373 198.373 102.68 197.68C104.013 196.96 105.507 196.6 107.16 196.6C108.493 196.6 109.573 196.853 110.4 197.36C111.227 197.84 111.853 198.48 112.28 199.28C112.707 200.08 113 200.947 113.16 201.88C113.32 202.787 113.4 203.68 113.4 204.56V218ZM127.623 218.4C125.836 218.4 124.249 218.12 122.863 217.56C121.476 216.973 120.289 216.187 119.303 215.2C118.343 214.213 117.609 213.08 117.103 211.8C116.596 210.493 116.343 209.133 116.343 207.72C116.343 205.693 116.783 203.853 117.663 202.2C118.569 200.52 119.863 199.173 121.543 198.16C123.223 197.12 125.249 196.6 127.623 196.6C129.996 196.6 132.009 197.107 133.663 198.12C135.343 199.133 136.623 200.467 137.503 202.12C138.383 203.747 138.823 205.52 138.823 207.44C138.823 207.813 138.796 208.187 138.743 208.56C138.716 208.907 138.689 209.213 138.663 209.48H123.143C123.223 210.413 123.476 211.2 123.903 211.84C124.356 212.48 124.929 212.973 125.623 213.32C126.316 213.64 127.049 213.8 127.823 213.8C128.783 213.8 129.676 213.573 130.503 213.12C131.356 212.667 131.943 212.053 132.263 211.28L137.703 212.8C137.169 213.893 136.409 214.867 135.423 215.72C134.463 216.547 133.316 217.2 131.983 217.68C130.676 218.16 129.223 218.4 127.623 218.4ZM122.983 205.56H132.103C131.996 204.68 131.743 203.92 131.343 203.28C130.943 202.613 130.409 202.107 129.743 201.76C129.076 201.387 128.343 201.2 127.543 201.2C126.716 201.2 125.969 201.387 125.303 201.76C124.663 202.107 124.143 202.613 123.743 203.28C123.343 203.92 123.089 204.68 122.983 205.56ZM141.523 210.44V197H147.923V209.04C147.923 210.32 148.177 211.307 148.683 212C149.19 212.667 149.91 213 150.843 213C151.43 213 151.99 212.907 152.523 212.72C153.057 212.507 153.577 212.173 154.083 211.72C154.59 211.267 155.043 210.68 155.443 209.96V197H161.843V210.88C161.843 211.52 161.937 211.973 162.123 212.24C162.337 212.48 162.697 212.627 163.203 212.68V218C162.617 218.107 162.097 218.187 161.643 218.24C161.217 218.293 160.83 218.32 160.483 218.32C159.363 218.32 158.47 218.093 157.803 217.64C157.137 217.16 156.723 216.493 156.563 215.64L156.443 214.36C155.483 215.747 154.283 216.773 152.843 217.44C151.43 218.08 149.843 218.4 148.083 218.4C145.95 218.4 144.323 217.72 143.203 216.36C142.083 215 141.523 213.027 141.523 210.44ZM189.418 218.4C187.844 218.4 186.471 218.067 185.298 217.4C184.124 216.707 183.204 215.773 182.538 214.6V226.52H176.138V197H181.698V200.4C182.471 199.2 183.444 198.267 184.618 197.6C185.791 196.933 187.164 196.6 188.738 196.6C190.151 196.6 191.444 196.88 192.618 197.44C193.818 198 194.858 198.773 195.738 199.76C196.618 200.747 197.298 201.893 197.778 203.2C198.258 204.507 198.498 205.92 198.498 207.44C198.498 209.52 198.111 211.387 197.338 213.04C196.564 214.693 195.484 216 194.098 216.96C192.738 217.92 191.178 218.4 189.418 218.4ZM187.258 213C187.951 213 188.578 212.853 189.138 212.56C189.724 212.24 190.231 211.827 190.658 211.32C191.084 210.813 191.404 210.227 191.618 209.56C191.858 208.867 191.978 208.147 191.978 207.4C191.978 206.627 191.844 205.92 191.578 205.28C191.338 204.64 190.991 204.08 190.538 203.6C190.084 203.093 189.551 202.707 188.938 202.44C188.324 202.173 187.658 202.04 186.938 202.04C186.511 202.04 186.071 202.107 185.618 202.24C185.191 202.373 184.778 202.573 184.378 202.84C184.004 203.08 183.658 203.373 183.338 203.72C183.018 204.067 182.751 204.467 182.538 204.92V209.24C182.831 209.96 183.218 210.6 183.698 211.16C184.178 211.72 184.724 212.173 185.338 212.52C185.951 212.84 186.591 213 187.258 213ZM211.723 218.4C209.937 218.4 208.337 218.107 206.923 217.52C205.537 216.933 204.363 216.133 203.403 215.12C202.443 214.107 201.71 212.947 201.203 211.64C200.723 210.333 200.483 208.96 200.483 207.52C200.483 206.053 200.723 204.667 201.203 203.36C201.71 202.053 202.443 200.893 203.403 199.88C204.363 198.867 205.537 198.067 206.923 197.48C208.337 196.893 209.937 196.6 211.723 196.6C213.51 196.6 215.097 196.893 216.483 197.48C217.87 198.067 219.043 198.867 220.003 199.88C220.963 200.893 221.697 202.053 222.203 203.36C222.71 204.667 222.963 206.053 222.963 207.52C222.963 208.96 222.71 210.333 222.203 211.64C221.697 212.947 220.963 214.107 220.003 215.12C219.043 216.133 217.87 216.933 216.483 217.52C215.097 218.107 213.51 218.4 211.723 218.4ZM207.043 207.52C207.043 208.613 207.243 209.573 207.643 210.4C208.07 211.227 208.63 211.867 209.323 212.32C210.017 212.773 210.817 213 211.723 213C212.603 213 213.39 212.773 214.083 212.32C214.803 211.84 215.363 211.187 215.763 210.36C216.163 209.533 216.363 208.587 216.363 207.52C216.363 206.427 216.163 205.467 215.763 204.64C215.363 203.813 214.803 203.173 214.083 202.72C213.39 202.267 212.603 202.04 211.723 202.04C210.817 202.04 210.017 202.267 209.323 202.72C208.63 203.173 208.07 203.813 207.643 204.64C207.243 205.467 207.043 206.427 207.043 207.52ZM239.458 202.48C237.911 202.48 236.511 202.733 235.258 203.24C234.004 203.72 233.098 204.44 232.538 205.4V218H226.138V197H232.018V201.24C232.738 199.827 233.671 198.72 234.818 197.92C235.964 197.12 237.164 196.707 238.418 196.68C238.711 196.68 238.924 196.68 239.058 196.68C239.218 196.68 239.351 196.693 239.458 196.72V202.48ZM255.753 216.88C255.166 217.12 254.513 217.36 253.793 217.6C253.1 217.84 252.366 218.027 251.593 218.16C250.82 218.32 250.06 218.4 249.313 218.4C248.246 218.4 247.26 218.227 246.353 217.88C245.473 217.507 244.766 216.907 244.233 216.08C243.726 215.253 243.473 214.16 243.473 212.8V201.84H240.793V197H243.473V190.32H249.873V197H254.153V201.84H249.873V210.6C249.873 211.293 250.046 211.8 250.393 212.12C250.74 212.413 251.18 212.56 251.713 212.56C252.166 212.56 252.646 212.48 253.153 212.32C253.686 212.16 254.14 211.987 254.513 211.8L255.753 216.88ZM259.49 218V203.56H256.81V198.72H259.49V197C259.49 195.24 259.783 193.72 260.37 192.44C260.983 191.16 261.836 190.173 262.93 189.48C264.05 188.76 265.343 188.4 266.81 188.4C267.716 188.4 268.623 188.507 269.53 188.72C270.436 188.933 271.356 189.24 272.29 189.64L271.13 194.44C270.73 194.253 270.263 194.107 269.73 194C269.196 193.867 268.703 193.8 268.25 193.8C267.476 193.8 266.89 194.053 266.49 194.56C266.09 195.04 265.89 195.773 265.89 196.76V198.72H270.77V203.56H265.89V218H259.49ZM283.364 218.4C281.577 218.4 279.977 218.107 278.564 217.52C277.177 216.933 276.004 216.133 275.044 215.12C274.084 214.107 273.351 212.947 272.844 211.64C272.364 210.333 272.124 208.96 272.124 207.52C272.124 206.053 272.364 204.667 272.844 203.36C273.351 202.053 274.084 200.893 275.044 199.88C276.004 198.867 277.177 198.067 278.564 197.48C279.977 196.893 281.577 196.6 283.364 196.6C285.151 196.6 286.737 196.893 288.124 197.48C289.511 198.067 290.684 198.867 291.644 199.88C292.604 200.893 293.337 202.053 293.844 203.36C294.351 204.667 294.604 206.053 294.604 207.52C294.604 208.96 294.351 210.333 293.844 211.64C293.337 212.947 292.604 214.107 291.644 215.12C290.684 216.133 289.511 216.933 288.124 217.52C286.737 218.107 285.151 218.4 283.364 218.4ZM278.684 207.52C278.684 208.613 278.884 209.573 279.284 210.4C279.711 211.227 280.271 211.867 280.964 212.32C281.657 212.773 282.457 213 283.364 213C284.244 213 285.031 212.773 285.724 212.32C286.444 211.84 287.004 211.187 287.404 210.36C287.804 209.533 288.004 208.587 288.004 207.52C288.004 206.427 287.804 205.467 287.404 204.64C287.004 203.813 286.444 203.173 285.724 202.72C285.031 202.267 284.244 202.04 283.364 202.04C282.457 202.04 281.657 202.267 280.964 202.72C280.271 203.173 279.711 203.813 279.284 204.64C278.884 205.467 278.684 206.427 278.684 207.52ZM297.698 188.8H304.098V210.52C304.098 211.4 304.258 212.027 304.578 212.4C304.898 212.773 305.351 212.96 305.938 212.96C306.338 212.96 306.738 212.907 307.138 212.8C307.565 212.667 307.938 212.52 308.258 212.36L309.098 217.16C308.298 217.533 307.378 217.827 306.338 218.04C305.298 218.253 304.325 218.36 303.418 218.36C301.605 218.36 300.191 217.88 299.178 216.92C298.191 215.933 297.698 214.547 297.698 212.76V188.8ZM311.177 218V197H317.577V218H311.177ZM311.177 194.6V188.8H317.577V194.6H311.177ZM331.958 218.4C330.171 218.4 328.571 218.107 327.158 217.52C325.771 216.933 324.598 216.133 323.638 215.12C322.678 214.107 321.944 212.947 321.438 211.64C320.958 210.333 320.718 208.96 320.718 207.52C320.718 206.053 320.958 204.667 321.438 203.36C321.944 202.053 322.678 200.893 323.638 199.88C324.598 198.867 325.771 198.067 327.158 197.48C328.571 196.893 330.171 196.6 331.958 196.6C333.744 196.6 335.331 196.893 336.718 197.48C338.104 198.067 339.278 198.867 340.238 199.88C341.198 200.893 341.931 202.053 342.438 203.36C342.944 204.667 343.198 206.053 343.198 207.52C343.198 208.96 342.944 210.333 342.438 211.64C341.931 212.947 341.198 214.107 340.238 215.12C339.278 216.133 338.104 216.933 336.718 217.52C335.331 218.107 333.744 218.4 331.958 218.4ZM327.278 207.52C327.278 208.613 327.478 209.573 327.878 210.4C328.304 211.227 328.864 211.867 329.558 212.32C330.251 212.773 331.051 213 331.958 213C332.838 213 333.624 212.773 334.318 212.32C335.038 211.84 335.598 211.187 335.998 210.36C336.398 209.533 336.598 208.587 336.598 207.52C336.598 206.427 336.398 205.467 335.998 204.64C335.598 203.813 335.038 203.173 334.318 202.72C333.624 202.267 332.838 202.04 331.958 202.04C331.051 202.04 330.251 202.267 329.558 202.72C328.864 203.173 328.304 203.813 327.878 204.64C327.478 205.467 327.278 206.427 327.278 207.52Z" fill="white"/>
</g>
<defs>
<clipPath id="clip0_9_48">
<rect width="603" height="381" fill="white"/>
</clipPath>
</defs>
</svg>
