<svg width="112" height="100" viewBox="0 0 112 100" fill="none" xmlns="http://www.w3.org/2000/svg">
<g clip-path="url(#clip0_10_124)">
<path d="M92.0834 32.379C90.8915 31.969 89.6896 31.5892 88.4787 31.24C88.6821 30.4066 88.8693 29.5834 89.0356 28.7746C91.7645 15.4935 89.9805 4.7939 83.8871 1.2711C78.0447 -2.10609 68.4901 1.4154 58.8405 9.83513C57.8895 10.6664 56.9596 11.5217 56.0517 12.4C55.4439 11.8159 54.8254 11.2432 54.1964 10.6821C44.0831 1.67943 33.9462 -2.11487 27.8593 1.41803C22.0223 4.80575 20.2938 14.8641 22.7506 27.4509C22.9951 28.6975 23.271 29.9377 23.5783 31.1702C22.1434 31.579 20.7589 32.0141 19.4338 32.4772C7.57676 36.622 0.00469971 43.1171 0.00469971 49.8544C0.00469971 56.8128 8.13365 63.7921 20.4833 68.0242C21.4845 68.3659 22.494 68.6825 23.5109 68.9737C23.1807 70.3012 22.8874 71.6377 22.6316 72.9816C20.2895 85.35 22.1185 95.1707 27.9398 98.5369C33.9523 102.013 44.0437 98.4404 53.8696 89.8286C54.6664 89.1284 55.4456 88.4085 56.2065 87.6693C57.1898 88.6205 58.1992 89.5439 59.2338 90.4386C68.7521 98.65 78.1524 101.966 83.968 98.5904C89.9748 95.104 91.9272 84.554 89.3925 71.7185C89.1929 70.7129 88.969 69.7123 88.721 68.7176C89.4297 68.5071 90.1253 68.2904 90.8034 68.065C103.642 63.8005 111.995 56.9057 111.995 49.8544C111.995 43.0926 104.179 36.5536 92.0834 32.379ZM89.2989 63.5123C88.6865 63.7154 88.0583 63.9114 87.4178 64.1022C86.0005 59.6036 84.0879 54.8202 81.747 49.8777C83.9807 45.0531 85.8198 40.3307 87.1973 35.8614C88.3431 36.1939 89.4547 36.5443 90.5265 36.9141C100.89 40.4913 107.211 45.7794 107.211 49.8544C107.211 54.1948 100.384 59.8294 89.2989 63.5123ZM84.6994 72.65C85.8202 78.3255 85.9799 83.4571 85.2375 87.4689C84.5708 91.0737 83.2296 93.4768 81.5707 94.4395C78.0417 96.4878 70.4941 93.8255 62.3542 86.8027C61.392 85.9708 60.4529 85.1123 59.5383 84.2281C62.6941 80.768 65.8478 76.7457 68.9258 72.2781C74.3399 71.7965 79.4547 71.0088 84.0931 69.9338C84.3166 70.8343 84.5187 71.74 84.6994 72.65ZM38.1848 94.0856C34.7367 95.3062 31.9903 95.3413 30.3301 94.3816C26.7976 92.3391 25.329 84.4536 27.3322 73.8764C27.5703 72.6265 27.8429 71.3835 28.1498 70.1487C32.737 71.1663 37.8147 71.8979 43.2414 72.3391C46.3404 76.7106 49.5851 80.7285 52.8551 84.247C52.1602 84.9212 51.4488 85.5781 50.7216 86.2171C46.3763 90.025 42.0222 92.7268 38.1848 94.0856ZM22.031 63.4856C16.5701 61.6141 12.0603 59.1821 8.96921 56.5281C6.19131 54.1435 4.78924 51.7755 4.78924 49.8544C4.78924 45.7658 10.8687 40.5509 21.0086 37.0066C22.2392 36.5768 23.5271 36.1711 24.8636 35.7904C26.2652 40.3606 28.1034 45.1391 30.3218 49.9711C28.0746 54.8746 26.2101 59.7294 24.7949 64.3536C23.8666 64.087 22.9451 63.7976 22.031 63.4856ZM27.4459 26.5294C25.3413 15.7457 26.739 7.61101 30.2566 5.56934C34.0031 3.39478 42.2878 6.49522 51.02 14.2689C51.5894 14.777 52.1496 15.2953 52.7003 15.8237C49.4464 19.3268 46.2315 23.315 43.1601 27.6606C37.893 28.15 32.8512 28.936 28.2159 29.9891C27.9303 28.8427 27.6735 27.6892 27.4459 26.5299V26.5294ZM75.7537 38.4891C74.6589 36.593 73.5234 34.7208 72.3481 32.8737C75.9213 33.3268 79.3449 33.9281 82.5598 34.6632C81.5947 37.765 80.3917 41.0075 78.9757 44.3321C77.9406 42.3631 76.8664 40.415 75.7537 38.4891ZM56.0539 19.2518C58.2604 21.6487 60.4705 24.3246 62.6443 27.2281C58.2346 27.0193 53.8176 27.0184 49.4079 27.2255C51.5839 24.3487 53.8127 21.6764 56.0539 19.2518ZM36.2276 38.522C35.1288 40.4324 34.0747 42.3683 33.066 44.3281C31.6731 41.0154 30.4811 37.7579 29.5077 34.6123C32.7029 33.8957 36.1103 33.3097 39.6608 32.865C38.4724 34.7233 37.3277 36.6093 36.2276 38.5215V38.522ZM39.7627 67.1851C36.0946 66.7746 32.636 66.2189 29.4416 65.5215C30.4303 62.3198 31.6486 58.993 33.0717 55.6093C34.0844 57.5705 35.1429 59.5076 36.2464 61.4189C37.3812 63.3838 38.5562 65.3084 39.7627 67.1851ZM56.186 80.7948C53.9182 78.3421 51.6565 75.6286 49.4477 72.7101C51.5922 72.7943 53.7782 72.8373 56.0001 72.8373C58.2827 72.8373 60.5392 72.786 62.7602 72.6869C60.5794 75.6579 58.3777 78.3755 56.186 80.7948ZM79.0207 55.4364C80.5177 58.8575 81.7794 62.1667 82.7812 65.3136C79.5343 66.0566 76.0285 66.6549 72.3345 67.0992C73.5182 65.2178 74.6644 63.3131 75.7725 61.386C76.8992 59.4272 77.9822 57.4435 79.0207 55.4364ZM71.6285 58.9895C69.9321 61.9441 68.1403 64.8425 66.256 67.6803C62.8427 67.9227 59.4219 68.0431 56.0001 68.0413C52.5148 68.0413 49.1249 67.9325 45.8605 67.7202C43.927 64.889 42.1011 61.9855 40.3865 59.0158H40.387C38.6805 56.0619 37.0866 53.0441 35.6086 49.9689C37.0828 46.893 38.6719 43.8737 40.3725 40.9176L40.3721 40.918C42.0721 37.9611 43.8835 35.07 45.8023 32.2509C49.1328 31.9983 52.548 31.8667 55.9996 31.8667H56.0001C59.4674 31.8667 62.8871 31.9996 66.2166 32.254C68.1161 35.0688 69.9159 37.95 71.6127 40.8921C73.319 43.8418 74.9291 46.8463 76.4406 49.9009C74.9446 52.9868 73.3396 56.0182 71.6285 58.9895ZM81.4976 5.42636C85.2476 7.59478 86.7061 16.3391 84.3499 27.8062C84.1994 28.5378 84.0305 29.2829 83.8468 30.0386C79.2001 28.9632 74.1548 28.1636 68.8724 27.6667C65.7953 23.2733 62.6066 19.279 59.4057 15.8211C60.2446 15.0104 61.1035 14.2206 61.9815 13.4527C70.2496 6.23908 77.9769 3.39083 81.4976 5.42636ZM56.0001 39.8281C61.523 39.8281 66.0005 44.3171 66.0005 49.8544C66.0005 55.3917 61.523 59.8807 56.0001 59.8807C50.4771 59.8807 45.9996 55.3917 45.9996 49.8544C45.9996 44.3171 50.4771 39.8281 56.0001 39.8281Z" fill="#00D8FF"/>
</g>
<defs>
<clipPath id="clip0_10_124">
<rect width="112" height="100" fill="white"/>
</clipPath>
</defs>
</svg>
